<mxfile host="app.diagrams.net" modified="2024-06-05T06:09:46.336Z" agent="Mozilla/5.0 (Android 14; Mobile; rv:126.0) Gecko/126.0 Firefox/126.0" etag="Zjs6VNZVQLeeXEiLitw5" version="24.4.13" type="github">
  <diagram name="Page-1" id="v8XXNr_qR8HgBXKqJc3F">
    <mxGraphModel dx="835" dy="182" grid="0" gridSize="10" guides="1" tooltips="1" connect="1" arrows="1" fold="1" page="0" pageScale="1" pageWidth="850" pageHeight="1100" math="0" shadow="0">
      <root>
        <mxCell id="0" />
        <mxCell id="1" parent="0" />
        <mxCell id="kw6fHK5-MN3SFMon7D99-1" value="PRIME" style="whiteSpace=wrap;html=1;" vertex="1" parent="1">
          <mxGeometry x="135" y="174" width="120" height="60" as="geometry" />
        </mxCell>
        <mxCell id="kw6fHK5-MN3SFMon7D99-2" value="CSOM" style="ellipse;whiteSpace=wrap;html=1;" vertex="1" parent="1">
          <mxGeometry x="40" y="280" width="122" height="80" as="geometry" />
        </mxCell>
        <mxCell id="kw6fHK5-MN3SFMon7D99-3" value="" style="edgeStyle=none;orthogonalLoop=1;jettySize=auto;html=1;rounded=0;fontSize=12;startSize=8;endSize=8;curved=1;exitX=0.5;exitY=1;exitDx=0;exitDy=0;entryX=0.705;entryY=0.038;entryDx=0;entryDy=0;entryPerimeter=0;" edge="1" parent="1" source="kw6fHK5-MN3SFMon7D99-1" target="kw6fHK5-MN3SFMon7D99-2">
          <mxGeometry width="120" relative="1" as="geometry">
            <mxPoint x="182" y="259" as="sourcePoint" />
            <mxPoint x="302" y="259" as="targetPoint" />
            <Array as="points" />
          </mxGeometry>
        </mxCell>
        <mxCell id="kw6fHK5-MN3SFMon7D99-4" value="Our Universe" style="whiteSpace=wrap;html=1;" vertex="1" parent="1">
          <mxGeometry x="131" y="60" width="120" height="75" as="geometry" />
        </mxCell>
        <mxCell id="kw6fHK5-MN3SFMon7D99-5" value="" style="edgeStyle=none;orthogonalLoop=1;jettySize=auto;html=1;rounded=0;fontSize=12;startSize=8;endSize=8;curved=1;exitX=0.5;exitY=1;exitDx=0;exitDy=0;entryX=0.5;entryY=0;entryDx=0;entryDy=0;" edge="1" parent="1" target="kw6fHK5-MN3SFMon7D99-1">
          <mxGeometry width="120" relative="1" as="geometry">
            <mxPoint x="187" y="135" as="sourcePoint" />
            <mxPoint x="314" y="246" as="targetPoint" />
            <Array as="points" />
          </mxGeometry>
        </mxCell>
        <mxCell id="kw6fHK5-MN3SFMon7D99-8" value="" style="whiteSpace=wrap;html=1;" vertex="1" parent="1">
          <mxGeometry x="230" y="232" width="120" height="60" as="geometry" />
        </mxCell>
      </root>
    </mxGraphModel>
  </diagram>
</mxfile>
